<?xml version="1.0" encoding="UTF-8"?> <!-- Generator: Adobe Illustrator 26.0.1, SVG Export Plug-In . SVG Version: 6.00 Build 0) --> <svg xmlns="http://www.w3.org/2000/svg" xmlns:xlink="http://www.w3.org/1999/xlink" id="Слой_1" x="0px" y="0px" viewBox="0 0 89.6 89.6" style="enable-background:new 0 0 89.6 89.6;" xml:space="preserve"> <style type="text/css"> .st0{display:none;} .st1{display:inline;} .st2{fill:url(#investment_00000149365282143921963000000012816415144397154986_);} .st3{fill:url(#hosting_00000145739040553478529230000004125755471696399251_);} .st4{fill:url(#wire_transfer_00000172415516911323486240000013728626279911473073_);} .st5{fill:url(#global_networking_00000119103476228901577100000002532478430085572270_);} .st6{fill:url(#network_00000083046458003877363070000014132835001283939983_);} </style> <g id="Layer_2" class="st0"> <g id="Layer_1-2" class="st1"> <linearGradient id="investment_00000029741269687841438450000013519652539327016627_" gradientUnits="userSpaceOnUse" x1="0" y1="44.8043" x2="89.6381" y2="44.8043"> <stop offset="0" style="stop-color:#0099FF"></stop> <stop offset="1" style="stop-color:#00F7FB"></stop> </linearGradient> <path id="investment" style="fill:url(#investment_00000029741269687841438450000013519652539327016627_);" d="M89.6,72.9 c0-2.2-1.8-4.1-4.1-4.1c-0.9,0.2-17.9-0.4-18.1,0.4c0.7-1.1,0.3-4.2,0.4-5.4c0-2.2-1.8-4.1-4.1-4.1c-0.3,0.1-18.1-0.2-17.7,0.3 v-6.6h9.5c6.7,0,12.2-5.5,12.2-12.2c0-0.7-0.6-1.4-1.4-1.4H55.7c-3.7,0-7.2,1.7-9.5,4.5v-9.1c9.7-0.7,17-9.2,16.2-18.9 c-0.7-9.7-9.2-17-18.9-16.2S26.5,9.3,27.2,19c0.7,8.7,7.6,15.6,16.2,16.2v18.2c-2.3-2.9-5.8-4.6-9.5-4.6H23.1 c-0.7,0-1.4,0.6-1.4,1.4l0,0c0,6.7,5.5,12.2,12.2,12.2h9.5V69c0.6-0.5-17.4-0.2-17.7-0.3c-2.2,0-4.1,1.8-4.1,4.1 c0.1,1.3-0.3,4.3,0.4,5.4C22,77.4,5,78,4.1,77.8c-2.3,0-4.1,1.8-4.1,4.1c0,0,0,0,0,0v3.6c0,2.2,1.8,4.1,4.1,4.1h16.3 c1,0,2-0.4,2.7-1.1c0.7,0.7,1.7,1.1,2.7,1.1h16.3c1,0,2-0.4,2.7-1.1c0.7,0.7,1.7,1.1,2.7,1.1h16.3c1,0,2-0.4,2.7-1.1 c0.7,0.7,1.7,1.1,2.7,1.1h16.3c2.2,0,4.1-1.8,4.1-4.1c-0.1-1.8,0.5-5-1.1-6.3C90.1,77.9,89.5,74.6,89.6,72.9z M55.7,42.5h9.4 c-0.7,4.7-4.7,8.1-9.4,8.1h-9.4C46.9,46,50.9,42.5,55.7,42.5z M33.9,59.7c-4.7,0-8.7-3.5-9.4-8.2h9.4c4.7,0,8.7,3.5,9.4,8.1 L33.9,59.7z M21.7,85.5c0,0.8-0.6,1.4-1.4,1.4H4.1c-2.1,0-1.2-3.2-1.4-5c0-0.7,0.6-1.4,1.4-1.4h16.3 C22.4,80.6,21.5,83.8,21.7,85.5L21.7,85.5z M43.4,85.5c0,0.7-0.6,1.4-1.4,1.4H25.8c-2.1,0-1.2-3.2-1.4-5c0-0.7,0.6-1.4,1.4-1.4 h16.3C44.2,80.6,43.3,83.8,43.4,85.5L43.4,85.5z M43.4,76.5c0,0.7-0.6,1.4-1.4,1.4H25.8c-2.1,0-1.2-3.2-1.4-5 c0-0.7,0.6-1.4,1.4-1.4h16.3C44.2,71.5,43.3,74.7,43.4,76.5L43.4,76.5z M29.9,17.6c0-8.2,6.7-14.9,14.9-14.9s14.9,6.7,14.9,14.9 s-6.7,14.9-14.9,14.9S29.9,25.9,29.9,17.6z M65.2,85.5c0,0.8-0.6,1.4-1.4,1.4H47.5c-2.1,0-1.2-3.2-1.4-5c0-0.7,0.6-1.4,1.4-1.4 h16.3C65.9,80.6,65,83.8,65.2,85.5L65.2,85.5z M65.2,76.5c0,0.8-0.6,1.4-1.4,1.4H47.5c-2.1,0-1.2-3.2-1.4-5c0-0.7,0.6-1.4,1.4-1.4 h16.3C65.9,71.5,65,74.7,65.2,76.5L65.2,76.5z M65.2,67.4c0,0.8-0.6,1.4-1.4,1.4H47.5c-2.1,0-1.2-3.2-1.4-5c0-0.7,0.6-1.4,1.4-1.4 l0,0h16.3C65.9,62.5,65,65.7,65.2,67.4L65.2,67.4z M86.9,85.5c0,0.7-0.6,1.4-1.4,1.4H69.2c-2.1,0-1.2-3.2-1.4-5 c0-0.7,0.6-1.4,1.4-1.4l0,0h16.3C87.6,80.6,86.7,83.8,86.9,85.5z M86.9,76.5c0,0.7-0.6,1.4-1.4,1.4H69.2c-2.1,0-1.2-3.2-1.4-5 c0-0.7,0.6-1.4,1.4-1.4l0,0h16.3C87.6,71.5,86.7,74.7,86.9,76.5z M50.5,21.6c-0.1,2.5-1.9,4.6-4.3,5.1c0.1,1-0.1,2.3-1.4,2.3 c-1.3,0-1.5-1.3-1.4-2.3c-1.7-0.4-3.2-1.6-3.9-3.2c-0.3-0.7,0.1-1.5,0.8-1.7c0.7-0.2,1.4,0.1,1.7,0.7c1,2.6,5.8,2,5.7-0.9 c0-1.7-1-2.5-3-2.5c-2.9,0.2-5.4-1.9-5.7-4.8c-0.2-2.7,1.6-5.1,4.3-5.6c-0.1-1,0.1-2.3,1.4-2.3c1.3,0,1.5,1.3,1.4,2.3 c1.9,0.3,5.7,3.3,3.2,5c-0.7,0.3-1.5,0-1.8-0.7c0,0,0,0,0,0c-1-2.6-5.8-2-5.7,0.9c0,1.7,1,2.5,2.9,2.5c2.8-0.3,5.3,1.7,5.7,4.6 C50.5,21.1,50.5,21.3,50.5,21.6z M36.2,17.6c0,0.7-0.6,1.4-1.4,1.4c-0.7,0-1.4-0.6-1.4-1.4c0-0.8,0.6-1.4,1.4-1.4 C35.6,16.3,36.2,16.9,36.2,17.6L36.2,17.6L36.2,17.6z M54.8,19c-0.7,0-1.4-0.6-1.4-1.4s0.6-1.4,1.4-1.4c0.7,0,1.4,0.6,1.4,1.4 S55.5,19,54.8,19z"></path> </g> </g> <g id="Layer_2_00000043453172205100270480000000863020364398417293_" class="st0"> <g id="Layer_1-2_00000119822393071040128690000018297028096469443518_" class="st1"> <linearGradient id="hosting_00000091715342319628335180000016198360712206272392_" gradientUnits="userSpaceOnUse" x1="1.865486e-02" y1="44.8043" x2="89.6194" y2="44.8043"> <stop offset="0" style="stop-color:#0099FF"></stop> <stop offset="1" style="stop-color:#00F7FB"></stop> </linearGradient> <path id="hosting" style="fill:url(#hosting_00000091715342319628335180000016198360712206272392_);" d="M11.8,9.5v5.4 c0,0.7-0.6,1.4-1.4,1.4s-1.4-0.6-1.4-1.4V9.5c0-0.7,0.6-1.4,1.4-1.4S11.8,8.8,11.8,9.5z M18.9,16.3c0.7,0,1.4-0.6,1.4-1.4 c0,0,0,0,0,0V9.5c0-0.8-0.7-1.3-1.4-1.3c-0.7,0-1.2,0.6-1.3,1.3v5.4C17.5,15.7,18.1,16.3,18.9,16.3z M27.3,16.3 c0.7,0,1.4-0.6,1.4-1.4V9.5c0-0.7-0.6-1.4-1.4-1.4S26,8.8,26,9.5v5.4C26,15.7,26.6,16.3,27.3,16.3z M35.8,16.3 c0.7,0,1.4-0.6,1.4-1.4V9.5c0-0.7-0.6-1.4-1.4-1.4c-0.7,0-1.4,0.6-1.4,1.4v5.4C34.4,15.7,35,16.3,35.8,16.3z M77.4,13.6 c2.6-0.3,1-3.9-1-2.3c-0.5,0.5-0.5,1.4,0,1.9C76.7,13.4,77,13.6,77.4,13.6z M68.3,13.6c0.7,0,1.4-0.6,1.4-1.4s-0.6-1.4-1.4-1.4 c-0.7,0-1.4,0.6-1.4,1.4C67,13,67.6,13.6,68.3,13.6L68.3,13.6z M59.3,13.6c0.8,0,1.4-0.6,1.3-1.4c0-0.3-0.1-0.7-0.4-0.9 c-0.5-0.5-1.4-0.5-1.9,0c-0.5,0.5-0.5,1.4,0,1.9C58.6,13.4,58.9,13.6,59.3,13.6L59.3,13.6z M10.4,29.9c-0.7,0-1.4,0.6-1.4,1.4 c0,0,0,0,0,0v5.4c0,0.7,0.6,1.4,1.4,1.4s1.4-0.6,1.4-1.4v-5.4C11.8,30.5,11.2,29.9,10.4,29.9z M18.9,29.9c-0.7,0-1.4,0.6-1.4,1.4 l0,0v5.4c0,0.8,0.7,1.3,1.4,1.3c0.7,0,1.2-0.6,1.3-1.3v-5.4C20.2,30.5,19.6,29.9,18.9,29.9z M27.3,29.9c-0.7,0-1.4,0.6-1.4,1.4 l0,0v5.4c0,0.7,0.6,1.4,1.4,1.4s1.4-0.6,1.4-1.4v-5.4C28.7,30.5,28.1,29.9,27.3,29.9z M35.8,29.9c-0.8,0-1.4,0.6-1.4,1.4v5.4 c0,0.7,0.6,1.4,1.4,1.4c0.7,0,1.4-0.6,1.4-1.4v-5.4C37.1,30.5,36.5,29.9,35.8,29.9z M76.4,33c-1.3,1.2,0.7,3.2,1.9,1.9 C79.6,33.6,77.7,31.8,76.4,33z M68.3,32.6c-0.7,0-1.4,0.6-1.4,1.4c0,0.7,0.6,1.4,1.4,1.4c0.8,0,1.4-0.6,1.4-1.4 C69.7,33.2,69.1,32.6,68.3,32.6L68.3,32.6z M58.3,33c-1.3,1.2,0.7,3.2,1.9,1.9C61.5,33.6,59.5,31.8,58.3,33z M83,44.8 c6,3.2,8.3,10.6,5.1,16.5c-2.1,4-6.2,6.5-10.7,6.5h-31V76h16.5c2.1,0,1.2,3.2,1.4,5.4h24c0.7,0,1.4,0.6,1.4,1.4 c0,0.7-0.6,1.4-1.4,1.4h-24c-0.2,2.2,0.7,5.4-1.4,5.4H26.7c-2.1,0-1.2-3.2-1.4-5.4h-24c-0.7,0-1.4-0.6-1.4-1.4 c0-0.7,0.6-1.4,1.4-1.4h24c0.2-2.2-0.7-5.4,1.4-5.4h17v-8.1H12.2C5.5,67.8,0.1,62.2,0.1,55.5c0.1-4.5,2.6-8.6,6.5-10.7 c-6-3.2-8.3-10.6-5.1-16.6c1.2-2.2,2.9-3.9,5.1-5.1c-6-3.2-8.3-10.6-5.1-16.6C3.7,2.6,7.8,0.1,12.2,0h65.2 c6.8,0.1,12.2,5.6,12.1,12.4c-0.1,4.5-2.6,8.6-6.5,10.7c6,3.2,8.3,10.6,5.1,16.6C86.9,41.9,85.1,43.7,83,44.8z M12.2,21.7h65.2 c5.2-0.4,9.2-4.9,8.9-10.1c-0.3-4.8-4.1-8.5-8.9-8.9H12.2C7,3.1,3,7.6,3.4,12.9C3.7,17.6,7.5,21.4,12.2,21.7z M28.1,78.7v8.1h33.5 v-8.1H28.1z M77.4,46.2H12.2c-5.2,0-9.5,4.3-9.5,9.5c0,5.2,4.3,9.5,9.5,9.5h65.2c5.2,0,9.5-4.3,9.5-9.5 C86.9,50.4,82.6,46.2,77.4,46.2z M86.9,33.9c0-5.3-4.3-9.5-9.5-9.5H12.2C7,24.8,3,29.3,3.3,34.5c0.3,4.8,4.1,8.6,8.9,8.9h65.2 C82.6,43.4,86.9,39.2,86.9,33.9L86.9,33.9z M10.4,51.6c-0.7,0-1.4,0.6-1.4,1.4c0,0,0,0,0,0v5.4c0,0.7,0.6,1.4,1.4,1.4 s1.4-0.6,1.4-1.4V53C11.8,52.2,11.2,51.6,10.4,51.6z M18.9,51.6c-0.7,0-1.4,0.6-1.4,1.4l0,0v5.4c0,0.8,0.7,1.3,1.4,1.3 c0.7,0,1.2-0.6,1.3-1.3V53C20.2,52.2,19.6,51.6,18.9,51.6z M27.3,51.6c-0.7,0-1.4,0.6-1.4,1.4l0,0v5.4c0,0.7,0.6,1.4,1.4,1.4 s1.4-0.6,1.4-1.4V53C28.7,52.2,28.1,51.6,27.3,51.6z M35.8,51.6c-0.8,0-1.4,0.6-1.4,1.4v5.4c0,0.7,0.6,1.4,1.4,1.4 c0.7,0,1.4-0.6,1.4-1.4V53C37.1,52.2,36.5,51.6,35.8,51.6z M76.4,54.7c-1.3,1.2,0.7,3.2,1.9,1.9C79.6,55.4,77.6,53.5,76.4,54.7 L76.4,54.7z M68.3,54.3c-0.7,0-1.4,0.6-1.4,1.4c0,0.7,0.6,1.4,1.4,1.4c0.8,0,1.4-0.6,1.4-1.4C69.7,54.9,69.1,54.3,68.3,54.3 L68.3,54.3z M58.3,54.7c-1.3,1.2,0.7,3.2,1.9,1.9C61.5,55.4,59.5,53.5,58.3,54.7L58.3,54.7z"></path> </g> </g> <g id="Layer_2_00000126321605270772331940000005167152354741474473_" class="st0"> <g id="Layer_1-2_00000126283078950212260900000006513846380480160415_" class="st1"> <linearGradient id="wire_transfer_00000005970044913762196850000010764553379129055146_" gradientUnits="userSpaceOnUse" x1="4.765796e-03" y1="44.8043" x2="89.6333" y2="44.8043"> <stop offset="0" style="stop-color:#0099FF"></stop> <stop offset="1" style="stop-color:#00F7FB"></stop> </linearGradient> <path id="wire_transfer" style="fill:url(#wire_transfer_00000005970044913762196850000010764553379129055146_);" d="M59.7,8.6 c0-0.7,0.6-1.4,1.4-1.4c0,0,0,0,0,0h9.1c0.8,0,1.3,0.7,1.3,1.4c0,0.7-0.6,1.2-1.3,1.3h-9C60.4,10,59.8,9.4,59.7,8.6 C59.7,8.6,59.7,8.6,59.7,8.6z M70.2,82.4c0.7,0,1.4-0.6,1.4-1.4s-0.6-1.4-1.4-1.4h-9c-0.7,0-1.4,0.6-1.4,1.4s0.6,1.4,1.4,1.4l0,0 H70.2z M86.5,0h-29c-0.7,0-1.4,0.6-1.4,1.4s0.6,1.4,1.4,1.4h29c0.2,0,0.5,0.2,0.5,0.4c0,0,0,0,0,0v11.3H61.1 c-0.7,0-1.4,0.6-1.4,1.4c0,0.7,0.6,1.4,1.4,1.4h25.8v55.2H61.1c-0.8,0-1.3,0.7-1.3,1.4c0,0.7,0.6,1.2,1.3,1.3h25.8v11.3 c0,0.2-0.2,0.5-0.5,0.5l0,0h-29c-0.7,0-1.4,0.6-1.4,1.4c0,0.7,0.6,1.4,1.4,1.4l0,0h29c1.8,0,3.2-1.4,3.2-3.2V3.2 C89.6,1.4,88.2,0,86.5,0C86.5,0,86.5,0,86.5,0z M57,79.2c0,5.7-4.7,10.4-10.4,10.4H10.4C4.7,89.6,0,84.9,0,79.2V10.4 C0,4.7,4.7,0,10.4,0h36.2C52.4,0,57,4.7,57,10.4v15c10.7,0.8,18.8,10.1,18,20.8c-0.7,9.6-8.4,17.3-18,18V79.2z M2.7,15.9 c1.2-0.9,2.6-1.4,4.1-1.4h43.4c1.5,0,2.9,0.5,4.1,1.4v-5.5c0-4.2-3.4-7.7-7.7-7.7H10.4c-4.2,0-7.7,3.4-7.7,7.7V15.9z M54.3,73.7 c-1.2,0.9-2.6,1.4-4.1,1.4H6.8c-1.5,0-2.9-0.5-4.1-1.4v5.5c0,4.3,3.4,7.7,7.7,7.7h36.2c4.2,0,7.7-3.4,7.7-7.7L54.3,73.7z M54.3,64.2c-10.7-0.8-18.8-10.1-18-20.8c0.7-9.6,8.4-17.3,18-18v-4.2c0-2.2-1.8-4.1-4.1-4.1H6.8c-2.2,0-4.1,1.8-4.1,4.1v47.1 c0,2.2,1.8,4.1,4.1,4.1h43.4c2.2,0,4.1-1.8,4.1-4.1L54.3,64.2z M55.7,61.6c9.2,0,16.7-7.5,16.7-16.7s-7.5-16.7-16.7-16.7 c-9.2,0.2-16.5,7.9-16.3,17.2C39.6,54.2,46.8,61.3,55.7,61.6L55.7,61.6z M55.7,43.5c-2.5,0-3.7-1.1-3.7-3.3c0-3.6,5.9-4.4,7.2-1.1 c0.3,0.7,1.1,1,1.8,0.7s1-1.1,0.7-1.8l0,0c-0.8-1.9-2.6-3.3-4.6-3.7c0-1.1,0.1-2.7-1.4-2.7c-1.5,0-1.4,1.6-1.4,2.7 c-3.2,0.6-5.4,3.7-4.8,6.9c0.5,3,3.2,5.1,6.2,4.9c2.5,0,3.7,1.1,3.7,3.3c0,3.6-5.9,4.4-7.2,1.1c-0.3-0.7-1.1-1-1.8-0.7 c0,0,0,0,0,0c-2.7,1.8,1.9,5.2,3.9,5.4c0,1.1-0.1,2.7,1.4,2.7c1.5,0,1.4-1.6,1.4-2.7c3.3-0.4,5.6-3.4,5.1-6.7 C61.7,45.4,58.9,43.1,55.7,43.5L55.7,43.5z M44.8,43.5c-0.8,0-1.3,0.7-1.3,1.4c0,0.7,0.6,1.2,1.3,1.3c0.8,0,1.4-0.6,1.4-1.4 C46.2,44.1,45.6,43.4,44.8,43.5L44.8,43.5z M66.5,43.5c-0.8,0-1.3,0.7-1.3,1.4c0,0.7,0.6,1.2,1.3,1.3c0.8,0,1.4-0.6,1.4-1.4 C67.9,44.1,67.3,43.4,66.5,43.5L66.5,43.5L66.5,43.5z M14.9,80.1c-0.5,0.5-0.5,1.4,0,1.9c0.5,0.5,1.4,0.5,1.9,0l0,0 C18.1,80.7,16.1,78.8,14.9,80.1z M28.5,79.7c-0.7,0-1.4,0.6-1.4,1.4s0.6,1.4,1.4,1.4s1.4-0.6,1.4-1.4S29.3,79.7,28.5,79.7z M40.2,80.1c-1.2,1.3,0.7,3.2,1.9,1.9C43.4,80.7,41.5,78.8,40.2,80.1z M28.5,10c0.7,0,1.4-0.6,1.4-1.4c0-0.7-0.6-1.4-1.4-1.4 s-1.4,0.6-1.4,1.4C27.2,9.3,27.8,10,28.5,10L28.5,10z M19.4,40.7h12.7c0.7,0,1.4-0.6,1.4-1.4c0-0.7-0.6-1.4-1.4-1.4H20.8v-4.1 c0-0.8-0.6-1.4-1.4-1.3c-0.3,0-0.7,0.1-0.9,0.4L7.6,43.8c-0.5,0.5-0.5,1.4,0,1.9l10.9,10.9c0.5,0.5,1.4,0.5,1.9,0 c0.2-0.2,0.4-0.6,0.4-0.9v-4.1h11.3c0.7,0,1.4-0.6,1.4-1.4c0-0.7-0.6-1.4-1.4-1.4H19.4c-1.8,0-1.3,2.4-1.4,3.5l-7.6-7.6l7.6-7.6 C18.2,38.4,17.7,40.7,19.4,40.7z"></path> </g> </g> <g id="Layer_2_00000081621089847351046890000012378254147642702480_"> <g id="Layer_1-2_00000121264947019286064600000010208789420314199696_"> <linearGradient id="global_networking_00000176765958488339049580000007511857610520091527_" gradientUnits="userSpaceOnUse" x1="0.9504" y1="44.8043" x2="88.6877" y2="44.8043"> <stop offset="0" style="stop-color:#0099FF"></stop> <stop offset="1" style="stop-color:#00F7FB"></stop> </linearGradient> <path id="global_networking" style="fill:url(#global_networking_00000176765958488339049580000007511857610520091527_);" d=" M83.4,57.8v-26c3.6-0.7,5.9-4.2,5.2-7.8c-0.7-3.6-4.2-5.9-7.8-5.2c-1.6,0.3-3,1.2-4,2.5L51.2,9.2c0.8-3.6-1.3-7.1-4.9-8 s-7.1,1.3-8,4.9c-0.2,1-0.2,2.1,0,3.1L12.9,21.3c-2.2-2.9-6.4-3.5-9.3-1.3s-3.5,6.4-1.3,9.3c1,1.3,2.4,2.2,4,2.5v26 c-3.6,0.7-5.9,4.2-5.2,7.8s4.2,5.9,7.8,5.2c1.6-0.3,3-1.2,4-2.5l25.5,12.1c-0.8,3.6,1.3,7.1,4.9,8c3.6,0.8,7.1-1.3,8-4.9 c0.2-1,0.2-2.1,0-3.1l25.5-12.1c2.2,2.9,6.4,3.5,9.3,1.3c2.9-2.2,3.5-6.4,1.3-9.3C86.4,59,85,58.1,83.4,57.8z M82,21.3 c2.2,0,4,1.8,4,4s-1.8,4-4,4c-2.2,0-4-1.8-4-4S79.8,21.3,82,21.3z M44.8,3.6c2.2,0,4,1.8,4,4s-1.8,4-4,4s-4-1.8-4-4 S42.6,3.6,44.8,3.6z M3.6,25.3c0-2.2,1.8-4,4-4s4,1.8,4,4s-1.8,4-4,4S3.6,27.5,3.6,25.3z M7.6,68.3c-2.2,0-4-1.8-4-4 c0-2.2,1.8-4,4-4c2.2,0,4,1.8,4,4C11.6,66.5,9.8,68.3,7.6,68.3L7.6,68.3z M44.8,86c-2.2,0-4-1.8-4-4c0-2.2,1.8-4,4-4 c2.2,0,4,1.8,4,4C48.8,84.2,47,86,44.8,86L44.8,86L44.8,86z M76.9,60.1L69.1,56c-0.7-0.3-1.5,0-1.8,0.6c-0.3,0.6-0.1,1.4,0.5,1.7 l7.8,4.1c-0.4,1.1-0.4,2.3-0.1,3.4L50.1,78c-1-1.3-2.4-2.2-4-2.5c-0.2-2.3,0.7-5.4-1.3-5.4s-1.1,3.2-1.3,5.4c-1.6,0.3-3,1.2-4,2.5 L14.1,65.9c0.3-1.1,0.3-2.3-0.1-3.4l7.8-4.1c0.7-0.3,1-1.1,0.7-1.8c-0.3-0.7-1.1-1-1.8-0.7c0,0-0.1,0-0.1,0.1l-7.8,4.1 c-1-1.2-2.3-2-3.8-2.3v-26c1.5-0.3,2.8-1.1,3.8-2.3l7.8,4.1c0.6,0.4,1.4,0.1,1.8-0.5c0.4-0.6,0.1-1.4-0.5-1.8c0,0-0.1,0-0.1,0 L14,27.1c0.4-1.1,0.4-2.3,0.1-3.4l25.5-12.1c1,1.3,2.4,2.2,4,2.5c0.2,2.3-0.7,5.4,1.3,5.5s1.1-3.2,1.3-5.5c1.6-0.3,3-1.2,4-2.5 l25.5,12.1c-0.3,1.1-0.3,2.3,0.1,3.4l-7.8,4.1c-0.6,0.4-0.9,1.2-0.5,1.8c0.3,0.6,1.1,0.8,1.7,0.5l7.8-4.1c1,1.2,2.3,2,3.8,2.3v26 C79.2,58.1,77.9,58.9,76.9,60.1L76.9,60.1z M82,68.3c-2.2,0-4-1.8-4-4c0-2.2,1.8-4,4-4c2.2,0,4,1.8,4,4C86,66.5,84.2,68.3,82,68.3 L82,68.3L82,68.3z M44.8,22.2c-12.5,0-22.6,10.1-22.6,22.6c1.1,29.9,44.1,29.9,45.2,0C67.4,32.3,57.3,22.2,44.8,22.2z M29.4,32.2 c2.6,3.2,4.2,7.2,4.5,11.3h-8.9C25.2,39.3,26.8,35.4,29.4,32.2z M24.9,46.1h8.9c-0.3,4.1-1.8,8.1-4.5,11.3 C26.8,54.2,25.2,50.3,24.9,46.1z M43.5,64.7c-4.6-0.3-8.9-2.2-12.2-5.3c3.2-3.7,5-8.4,5.3-13.2h6.9L43.5,64.7z M43.5,43.5h-6.9 c-0.3-4.9-2.1-9.5-5.3-13.2c3.3-3.1,7.7-5,12.2-5.3V43.5z M46.1,24.9c4.6,0.3,8.9,2.2,12.2,5.3c-3.2,3.7-5,8.4-5.3,13.2h-6.9 L46.1,24.9z M46.1,64.7V46.1h6.9c0.3,4.9,2.1,9.5,5.3,13.2C55,62.5,50.7,64.4,46.1,64.7z M60.2,57.4c-2.6-3.2-4.2-7.2-4.5-11.3 h8.9C64.4,50.3,62.9,54.2,60.2,57.4z M55.7,43.5c0.3-4.1,1.8-8.1,4.5-11.3c2.6,3.2,4.2,7.2,4.5,11.3H55.7z"></path> </g> </g> <g id="Layer_2_00000162350455125808307940000001261958154691860395_" class="st0"> <g id="Layer_1-2_00000046300093983823337550000003754520477687857587_" class="st1"> <linearGradient id="network_00000176733704089396591060000009658127268593733020_" gradientUnits="userSpaceOnUse" x1="3.9314" y1="44.8043" x2="85.7066" y2="44.8043"> <stop offset="0" style="stop-color:#0099FF"></stop> <stop offset="1" style="stop-color:#00F7FB"></stop> </linearGradient> <path id="network" style="fill:url(#network_00000176733704089396591060000009658127268593733020_);" d="M30,26.2h7.6L36.4,32 h-4.8c-0.7,0-1.2,0.6-1.2,1.3c0,0.6,0.5,1.1,1.2,1.2H58c0.7,0,1.2-0.6,1.2-1.3c0-0.6-0.5-1.1-1.2-1.2h-4.8l-1.2-5.8h7.6 c0.7,0,1.2-0.6,1.2-1.2l0,0V5.1c0-0.7-0.6-1.2-1.2-1.2c0,0,0,0,0,0H30c-0.7,0-1.2,0.6-1.2,1.2V25C28.7,25.7,29.3,26.2,30,26.2z M38.9,32l1.2-5.8h9.5l1.2,5.8H38.9z M31.2,6.4h27.3v17.4H31.2V6.4z M34.9,55.1H5.2c-0.7,0-1.2,0.6-1.2,1.2v19.8 c0,0.7,0.6,1.2,1.2,1.2c0,0,0,0,0,0h7.6l-1.2,5.8H6.8c-0.7,0-1.2,0.6-1.2,1.3c0,0.6,0.5,1.1,1.2,1.2h26.4c0.7,0,1.2-0.6,1.2-1.3 c0-0.6-0.5-1.1-1.2-1.2h-4.8l-1.1-5.8h7.6c0.7,0,1.2-0.6,1.2-1.2l0,0V56.3C36.1,55.7,35.6,55.1,34.9,55.1z M14.1,83.2l1.2-5.8h9.5 l1.2,5.8H14.1z M33.7,74.9H6.4V57.6h27.3V74.9z M84.5,55.1H54.7c-0.7,0-1.2,0.6-1.2,1.2v19.8c0,0.7,0.6,1.2,1.2,1.2c0,0,0,0,0,0 h7.6l-1.2,5.8h-4.8c-0.7,0-1.2,0.6-1.2,1.3c0,0.6,0.5,1.1,1.2,1.2h26.4c0.7,0,1.2-0.6,1.2-1.3c0-0.6-0.5-1.1-1.2-1.2h-4.8 l-1.2-5.8h7.6c0.7,0,1.2-0.6,1.2-1.2l0,0V56.4C85.7,55.7,85.1,55.1,84.5,55.1L84.5,55.1L84.5,55.1z M63.7,83.2l1.2-5.8h9.5 l1.2,5.8H63.7z M83.2,74.9H56V57.6h27.3L83.2,74.9z M5.2,43.6h38v-7c0-0.7,0.6-1.2,1.2-1.2c0.7,0,1.2,0.6,1.2,1.2v7h38.8 c0.7,0,1.2,0.6,1.2,1.3c0,0.6-0.5,1.1-1.2,1.2H70.8v7c0,0.7-0.6,1.2-1.3,1.2c-0.6,0-1.1-0.5-1.2-1.2v-7H21.3v7 c0,0.7-0.6,1.2-1.2,1.2c-0.7,0-1.2-0.6-1.2-1.2l0,0v-7H5.2C4.5,46,4,45.4,4,44.7C4,44.1,4.5,43.6,5.2,43.6z"></path> </g> </g> </svg> 