<?xml version="1.0" encoding="UTF-8"?> <!-- Generator: Adobe Illustrator 26.0.1, SVG Export Plug-In . SVG Version: 6.00 Build 0) --> <svg xmlns="http://www.w3.org/2000/svg" xmlns:xlink="http://www.w3.org/1999/xlink" id="Слой_1" x="0px" y="0px" viewBox="0 0 89.8 89.8" style="enable-background:new 0 0 89.8 89.8;" xml:space="preserve"> <style type="text/css"> .st0{display:none;} .st1{display:inline;} .st2{fill:url(#investment_00000132055344382190437410000013257674236684676000_);} .st3{fill:url(#hosting_00000094602701347641070080000005177736854556676003_);} .st4{fill:url(#wire_transfer_00000039106102519197739110000012943194457136148397_);} .st5{fill:url(#global_networking_00000149372478327503254420000013216709740087536058_);} .st6{fill:url(#network_00000145766276197097200400000017726762213012864446_);} .st7{fill:url(#thumb_up_00000148632647879542869670000015708078160339128718_);} .st8{fill:url(#software_00000162327741405304852530000015837513045538961594_);} .st9{fill:url(#science_00000120560017401547271370000011479527544927474816_);} </style> <g id="Layer_2" class="st0"> <g id="Layer_1-2" class="st1"> <linearGradient id="investment_00000067929213088800515990000015191484930434737057_" gradientUnits="userSpaceOnUse" x1="8.478893e-02" y1="46.7872" x2="89.7152" y2="46.7872" gradientTransform="matrix(1 0 0 -1 0 91.6872)"> <stop offset="0" style="stop-color:#0099FF"></stop> <stop offset="1" style="stop-color:#00F7FB"></stop> </linearGradient> <path id="investment" style="fill:url(#investment_00000067929213088800515990000015191484930434737057_);" d="M89.7,73 c0-2.2-1.8-4.1-4.1-4.1c-0.9,0.2-17.9-0.4-18.1,0.4c0.7-1.1,0.3-4.2,0.4-5.4c0-2.2-1.8-4.1-4.1-4.1c-0.3,0.1-18.1-0.2-17.7,0.3 v-6.6h9.5c6.7,0,12.2-5.5,12.2-12.2c0-0.7-0.6-1.4-1.4-1.4H55.8c-3.7,0-7.2,1.7-9.5,4.5v-9.1c9.7-0.7,17-9.2,16.2-18.9 c-0.7-9.7-9.2-17-18.9-16.2s-17,9.2-16.3,18.9c0.7,8.7,7.6,15.6,16.2,16.2v18.2c-2.3-2.9-5.8-4.6-9.5-4.6H23.2 c-0.7,0-1.4,0.6-1.4,1.4l0,0c0,6.7,5.5,12.2,12.2,12.2h9.5v6.6c0.6-0.5-17.4-0.2-17.7-0.3c-2.2,0-4.1,1.8-4.1,4.1 c0.1,1.3-0.3,4.3,0.4,5.4c0-0.8-17-0.2-17.9-0.4c-2.3,0-4.1,1.8-4.1,4.1l0,0v3.6c0,2.2,1.8,4.1,4.1,4.1h16.3c1,0,2-0.4,2.7-1.1 c0.7,0.7,1.7,1.1,2.7,1.1h16.3c1,0,2-0.4,2.7-1.1c0.7,0.7,1.7,1.1,2.7,1.1h16.3c1,0,2-0.4,2.7-1.1c0.7,0.7,1.7,1.1,2.7,1.1h16.3 c2.2,0,4.1-1.8,4.1-4.1c-0.1-1.8,0.5-5-1.1-6.3C90.2,78,89.6,74.7,89.7,73z M55.8,42.6h9.4c-0.7,4.7-4.7,8.1-9.4,8.1h-9.4 C47,46.1,51,42.6,55.8,42.6z M34,59.8c-4.7,0-8.7-3.5-9.4-8.2H34c4.7,0,8.7,3.5,9.4,8.1L34,59.8z M21.8,85.6 c0,0.8-0.6,1.4-1.4,1.4H4.2c-2.1,0-1.2-3.2-1.4-5c0-0.7,0.6-1.4,1.4-1.4h16.3C22.5,80.7,21.6,83.9,21.8,85.6L21.8,85.6z M43.5,85.6c0,0.7-0.6,1.4-1.4,1.4H25.9c-2.1,0-1.2-3.2-1.4-5c0-0.7,0.6-1.4,1.4-1.4h16.3C44.3,80.7,43.4,83.9,43.5,85.6 L43.5,85.6z M43.5,76.6c0,0.7-0.6,1.4-1.4,1.4H25.9c-2.1,0-1.2-3.2-1.4-5c0-0.7,0.6-1.4,1.4-1.4h16.3 C44.3,71.6,43.4,74.8,43.5,76.6L43.5,76.6z M30,17.7c0-8.2,6.7-14.9,14.9-14.9s14.9,6.7,14.9,14.9s-6.7,14.9-14.9,14.9 S30,26,30,17.7z M65.3,85.6c0,0.8-0.6,1.4-1.4,1.4H47.6c-2.1,0-1.2-3.2-1.4-5c0-0.7,0.6-1.4,1.4-1.4h16.3 C66,80.7,65.1,83.9,65.3,85.6L65.3,85.6z M65.3,76.6c0,0.8-0.6,1.4-1.4,1.4H47.6c-2.1,0-1.2-3.2-1.4-5c0-0.7,0.6-1.4,1.4-1.4h16.3 C66,71.6,65.1,74.8,65.3,76.6L65.3,76.6z M65.3,67.5c0,0.8-0.6,1.4-1.4,1.4H47.6c-2.1,0-1.2-3.2-1.4-5c0-0.7,0.6-1.4,1.4-1.4l0,0 h16.3C66,62.6,65.1,65.8,65.3,67.5L65.3,67.5z M87,85.6c0,0.7-0.6,1.4-1.4,1.4H69.3c-2.1,0-1.2-3.2-1.4-5c0-0.7,0.6-1.4,1.4-1.4 l0,0h16.3C87.7,80.7,86.8,83.9,87,85.6z M87,76.6c0,0.7-0.6,1.4-1.4,1.4H69.3c-2.1,0-1.2-3.2-1.4-5c0-0.7,0.6-1.4,1.4-1.4l0,0 h16.3C87.7,71.6,86.8,74.8,87,76.6z M50.6,21.7c-0.1,2.5-1.9,4.6-4.3,5.1c0.1,1-0.1,2.3-1.4,2.3c-1.3,0-1.5-1.3-1.4-2.3 c-1.7-0.4-3.2-1.6-3.9-3.2c-0.3-0.7,0.1-1.5,0.8-1.7s1.4,0.1,1.7,0.7c1,2.6,5.8,2,5.7-0.9c0-1.7-1-2.5-3-2.5 c-2.9,0.2-5.4-1.9-5.7-4.8c-0.2-2.7,1.6-5.1,4.3-5.6c-0.1-1,0.1-2.3,1.4-2.3c1.3,0,1.5,1.3,1.4,2.3c1.9,0.3,5.7,3.3,3.2,5 c-0.7,0.3-1.5,0-1.8-0.7l0,0c-1-2.6-5.8-2-5.7,0.9c0,1.7,1,2.5,2.9,2.5c2.8-0.3,5.3,1.7,5.7,4.6C50.6,21.2,50.6,21.4,50.6,21.7z M36.3,17.7c0,0.7-0.6,1.4-1.4,1.4c-0.7,0-1.4-0.6-1.4-1.4s0.6-1.4,1.4-1.4C35.7,16.4,36.3,17,36.3,17.7L36.3,17.7L36.3,17.7z M54.9,19.1c-0.7,0-1.4-0.6-1.4-1.4s0.6-1.4,1.4-1.4c0.7,0,1.4,0.6,1.4,1.4S55.6,19.1,54.9,19.1z"></path> </g> </g> <g id="Layer_2_00000043453172205100270480000000863020364398417293_" class="st0"> <g id="Layer_1-2_00000119822393071040128690000018297028096469443518_" class="st1"> <linearGradient id="hosting_00000111879474341105013340000013389478433327592624_" gradientUnits="userSpaceOnUse" x1="0.1187" y1="46.7872" x2="89.7194" y2="46.7872" gradientTransform="matrix(1 0 0 -1 0 91.6872)"> <stop offset="0" style="stop-color:#0099FF"></stop> <stop offset="1" style="stop-color:#00F7FB"></stop> </linearGradient> <path id="hosting" style="fill:url(#hosting_00000111879474341105013340000013389478433327592624_);" d="M11.9,9.6V15 c0,0.7-0.6,1.4-1.4,1.4S9.1,15.8,9.1,15V9.6c0-0.7,0.6-1.4,1.4-1.4S11.9,8.9,11.9,9.6z M19,16.4c0.7,0,1.4-0.6,1.4-1.4l0,0V9.6 c0-0.8-0.7-1.3-1.4-1.3c-0.7,0-1.2,0.6-1.3,1.3V15C17.6,15.8,18.2,16.4,19,16.4z M27.4,16.4c0.7,0,1.4-0.6,1.4-1.4V9.6 c0-0.7-0.6-1.4-1.4-1.4s-1.3,0.7-1.3,1.4V15C26.1,15.8,26.7,16.4,27.4,16.4z M35.9,16.4c0.7,0,1.4-0.6,1.4-1.4V9.6 c0-0.7-0.6-1.4-1.4-1.4c-0.7,0-1.4,0.6-1.4,1.4V15C34.5,15.8,35.1,16.4,35.9,16.4z M77.5,13.7c2.6-0.3,1-3.9-1-2.3 c-0.5,0.5-0.5,1.4,0,1.9C76.8,13.5,77.1,13.7,77.5,13.7z M68.4,13.7c0.7,0,1.4-0.6,1.4-1.4s-0.6-1.4-1.4-1.4 c-0.7,0-1.4,0.6-1.4,1.4C67.1,13.1,67.7,13.7,68.4,13.7L68.4,13.7z M59.4,13.7c0.8,0,1.4-0.6,1.3-1.4c0-0.3-0.1-0.7-0.4-0.9 c-0.5-0.5-1.4-0.5-1.9,0s-0.5,1.4,0,1.9C58.7,13.5,59,13.7,59.4,13.7L59.4,13.7z M10.5,30c-0.7,0-1.4,0.6-1.4,1.4l0,0v5.4 c0,0.7,0.6,1.4,1.4,1.4s1.4-0.6,1.4-1.4v-5.4C11.9,30.6,11.3,30,10.5,30z M19,30c-0.7,0-1.4,0.6-1.4,1.4l0,0v5.4 c0,0.8,0.7,1.3,1.4,1.3c0.7,0,1.2-0.6,1.3-1.3v-5.4C20.3,30.6,19.7,30,19,30z M27.4,30c-0.7,0-1.4,0.6-1.4,1.4l0,0v5.4 c0,0.7,0.6,1.4,1.4,1.4s1.4-0.6,1.4-1.4v-5.4C28.8,30.6,28.2,30,27.4,30z M35.9,30c-0.8,0-1.4,0.6-1.4,1.4v5.4 c0,0.7,0.6,1.4,1.4,1.4c0.7,0,1.4-0.6,1.4-1.4v-5.4C37.2,30.6,36.6,30,35.9,30z M76.5,33.1c-1.3,1.2,0.7,3.2,1.9,1.9 C79.7,33.7,77.8,31.9,76.5,33.1z M68.4,32.7c-0.7,0-1.4,0.6-1.4,1.4c0,0.7,0.6,1.4,1.4,1.4s1.4-0.6,1.4-1.4 C69.8,33.3,69.2,32.7,68.4,32.7L68.4,32.7z M58.4,33.1c-1.3,1.2,0.7,3.2,1.9,1.9C61.6,33.7,59.6,31.9,58.4,33.1z M83.1,44.9 c6,3.2,8.3,10.6,5.1,16.5c-2.1,4-6.2,6.5-10.7,6.5h-31v8.2H63c2.1,0,1.2,3.2,1.4,5.4h24c0.7,0,1.4,0.6,1.4,1.4 c0,0.7-0.6,1.4-1.4,1.4h-24c-0.2,2.2,0.7,5.4-1.4,5.4H26.8c-2.1,0-1.2-3.2-1.4-5.4h-24c-0.7,0-1.4-0.6-1.4-1.4 c0-0.7,0.6-1.4,1.4-1.4h24c0.2-2.2-0.7-5.4,1.4-5.4h17V68H12.3C5.6,67.9,0.2,62.3,0.2,55.6c0.1-4.5,2.6-8.6,6.5-10.7 c-6-3.2-8.3-10.6-5.1-16.6c1.2-2.2,2.9-3.9,5.1-5.1C0.7,20-1.6,12.6,1.6,6.6c2.2-3.9,6.3-6.4,10.7-6.5h65.2 c6.8,0.1,12.2,5.6,12.1,12.4c-0.1,4.5-2.6,8.6-6.5,10.7c6,3.2,8.3,10.6,5.1,16.6C87,42,85.2,43.8,83.1,44.9z M12.3,21.8h65.2 c5.2-0.4,9.2-4.9,8.9-10.1c-0.3-4.8-4.1-8.5-8.9-8.9H12.3C7.1,3.2,3.1,7.7,3.5,13C3.8,17.7,7.6,21.5,12.3,21.8z M28.2,78.8v8.1 h33.5v-8.1H28.2z M77.5,46.3H12.3c-5.2,0-9.5,4.3-9.5,9.5s4.3,9.5,9.5,9.5h65.2c5.2,0,9.5-4.3,9.5-9.5 C87,50.5,82.7,46.3,77.5,46.3z M87,34c0-5.3-4.3-9.5-9.5-9.5H12.3c-5.2,0.4-9.2,4.9-8.9,10.1c0.3,4.8,4.1,8.6,8.9,8.9h65.2 C82.7,43.5,87,39.3,87,34L87,34z M10.5,51.7c-0.7,0-1.4,0.6-1.4,1.4l0,0v5.4c0,0.7,0.6,1.4,1.4,1.4s1.4-0.6,1.4-1.4v-5.4 C11.9,52.3,11.3,51.7,10.5,51.7z M19,51.7c-0.7,0-1.4,0.6-1.4,1.4l0,0v5.4c0,0.8,0.7,1.3,1.4,1.3c0.7,0,1.2-0.6,1.3-1.3v-5.4 C20.3,52.3,19.7,51.7,19,51.7z M27.4,51.7c-0.7,0-1.4,0.6-1.4,1.4l0,0v5.4c0,0.7,0.6,1.4,1.4,1.4s1.4-0.6,1.4-1.4v-5.4 C28.8,52.3,28.2,51.7,27.4,51.7z M35.9,51.7c-0.8,0-1.4,0.6-1.4,1.4v5.4c0,0.7,0.6,1.4,1.4,1.4c0.7,0,1.4-0.6,1.4-1.4v-5.4 C37.2,52.3,36.6,51.7,35.9,51.7z M76.5,54.8c-1.3,1.2,0.7,3.2,1.9,1.9C79.7,55.5,77.7,53.6,76.5,54.8L76.5,54.8z M68.4,54.4 c-0.7,0-1.4,0.6-1.4,1.4c0,0.7,0.6,1.4,1.4,1.4s1.4-0.6,1.4-1.4C69.8,55,69.2,54.4,68.4,54.4L68.4,54.4z M58.4,54.8 c-1.3,1.2,0.7,3.2,1.9,1.9C61.6,55.5,59.6,53.6,58.4,54.8L58.4,54.8z"></path> </g> </g> <g id="Layer_2_00000126321605270772331940000005167152354741474473_" class="st0"> <g id="Layer_1-2_00000126283078950212260900000006513846380480160415_" class="st1"> <linearGradient id="wire_transfer_00000040537831124181503300000009205587544513701022_" gradientUnits="userSpaceOnUse" x1="0.1" y1="46.7872" x2="89.7" y2="46.7872" gradientTransform="matrix(1 0 0 -1 0 91.6872)"> <stop offset="0" style="stop-color:#0099FF"></stop> <stop offset="1" style="stop-color:#00F7FB"></stop> </linearGradient> <path id="wire_transfer" style="fill:url(#wire_transfer_00000040537831124181503300000009205587544513701022_);" d="M59.8,8.6 c0-0.7,0.6-1.4,1.4-1.4l0,0h9.1c0.8,0,1.3,0.7,1.3,1.4S71,9.8,70.3,9.9h-9C60.5,10,59.9,9.4,59.8,8.6L59.8,8.6z M70.3,82.4 c0.7,0,1.4-0.6,1.4-1.4s-0.6-1.4-1.4-1.4h-9c-0.7,0-1.4,0.6-1.4,1.4s0.6,1.4,1.4,1.4l0,0H70.3z M86.6,0h-29 c-0.7,0-1.4,0.6-1.4,1.4s0.6,1.4,1.4,1.4h29c0.2,0,0.5,0.2,0.5,0.4l0,0v11.3H61.2c-0.7,0-1.4,0.6-1.4,1.4c0,0.7,0.6,1.4,1.4,1.4 H87v55.2H61.2c-0.8,0-1.3,0.7-1.3,1.4c0,0.7,0.6,1.2,1.3,1.3H87v11.3c0,0.2-0.2,0.5-0.5,0.5l0,0h-29c-0.7,0-1.4,0.6-1.4,1.4 c0,0.7,0.6,1.4,1.4,1.4l0,0h29c1.8,0,3.2-1.4,3.2-3.2V3.2C89.7,1.4,88.3,0,86.6,0L86.6,0z M57.1,79.2c0,5.7-4.7,10.4-10.4,10.4 H10.5c-5.7,0-10.4-4.7-10.4-10.4V10.4C0.1,4.7,4.8,0,10.5,0h36.2c5.8,0,10.4,4.7,10.4,10.4v15c10.7,0.8,18.8,10.1,18,20.8 c-0.7,9.6-8.4,17.3-18,18V79.2z M2.8,15.9C4,15,5.4,14.5,6.9,14.5h43.4c1.5,0,2.9,0.5,4.1,1.4v-5.5c0-4.2-3.4-7.7-7.7-7.7H10.5 c-4.2,0-7.7,3.4-7.7,7.7C2.8,10.4,2.8,15.9,2.8,15.9z M54.4,73.7c-1.2,0.9-2.6,1.4-4.1,1.4H6.9c-1.5,0-2.9-0.5-4.1-1.4v5.5 c0,4.3,3.4,7.7,7.7,7.7h36.2c4.2,0,7.7-3.4,7.7-7.7V73.7z M54.4,64.2c-10.7-0.8-18.8-10.1-18-20.8c0.7-9.6,8.4-17.3,18-18v-4.2 c0-2.2-1.8-4.1-4.1-4.1H6.9c-2.2,0-4.1,1.8-4.1,4.1v47.1c0,2.2,1.8,4.1,4.1,4.1h43.4c2.2,0,4.1-1.8,4.1-4.1V64.2z M55.8,61.6 c9.2,0,16.7-7.5,16.7-16.7S65,28.2,55.8,28.2c-9.2,0.2-16.5,7.9-16.3,17.2C39.7,54.2,46.9,61.3,55.8,61.6L55.8,61.6z M55.8,43.5 c-2.5,0-3.7-1.1-3.7-3.3c0-3.6,5.9-4.4,7.2-1.1c0.3,0.7,1.1,1,1.8,0.7s1-1.1,0.7-1.8l0,0c-0.8-1.9-2.6-3.3-4.6-3.7 c0-1.1,0.1-2.7-1.4-2.7s-1.4,1.6-1.4,2.7c-3.2,0.6-5.4,3.7-4.8,6.9c0.5,3,3.2,5.1,6.2,4.9c2.5,0,3.7,1.1,3.7,3.3 c0,3.6-5.9,4.4-7.2,1.1c-0.3-0.7-1.1-1-1.8-0.7l0,0c-2.7,1.8,1.9,5.2,3.9,5.4c0,1.1-0.1,2.7,1.4,2.7s1.4-1.6,1.4-2.7 c3.3-0.4,5.6-3.4,5.1-6.7C61.8,45.4,59,43.1,55.8,43.5L55.8,43.5z M44.9,43.5c-0.8,0-1.3,0.7-1.3,1.4s0.6,1.2,1.3,1.3 c0.8,0,1.4-0.6,1.4-1.4C46.3,44.1,45.7,43.4,44.9,43.5L44.9,43.5z M66.6,43.5c-0.8,0-1.3,0.7-1.3,1.4s0.6,1.2,1.3,1.3 c0.8,0,1.4-0.6,1.4-1.4C68,44.1,67.4,43.4,66.6,43.5L66.6,43.5L66.6,43.5z M15,80.1c-0.5,0.5-0.5,1.4,0,1.9s1.4,0.5,1.9,0l0,0 C18.2,80.7,16.2,78.8,15,80.1z M28.6,79.7c-0.7,0-1.4,0.6-1.4,1.4s0.6,1.4,1.4,1.4s1.4-0.6,1.4-1.4S29.4,79.7,28.6,79.7z M40.3,80.1c-1.2,1.3,0.7,3.2,1.9,1.9C43.5,80.7,41.6,78.8,40.3,80.1z M28.6,10c0.7,0,1.4-0.6,1.4-1.4c0-0.7-0.6-1.4-1.4-1.4 s-1.4,0.6-1.4,1.4C27.3,9.3,27.9,10,28.6,10L28.6,10z M19.5,40.7h12.7c0.7,0,1.4-0.6,1.4-1.4c0-0.7-0.6-1.4-1.4-1.4H20.9v-4.1 c0-0.8-0.6-1.4-1.4-1.3c-0.3,0-0.7,0.1-0.9,0.4L7.7,43.8c-0.5,0.5-0.5,1.4,0,1.9l10.9,10.9c0.5,0.5,1.4,0.5,1.9,0 c0.2-0.2,0.4-0.6,0.4-0.9v-4.1h11.3c0.7,0,1.4-0.6,1.4-1.4c0-0.7-0.6-1.4-1.4-1.4H19.5c-1.8,0-1.3,2.4-1.4,3.5l-7.6-7.6l7.6-7.6 C18.3,38.4,17.8,40.7,19.5,40.7z"></path> </g> </g> <g id="Layer_2_00000081621089847351046890000012378254147642702480_" class="st0"> <g id="Layer_1-2_00000121264947019286064600000010208789420314199696_" class="st1"> <linearGradient id="global_networking_00000143579650908016514970000001789131899042586805_" gradientUnits="userSpaceOnUse" x1="1.0215" y1="46.7872" x2="88.7785" y2="46.7872" gradientTransform="matrix(1 0 0 -1 0 91.6872)"> <stop offset="0" style="stop-color:#0099FF"></stop> <stop offset="1" style="stop-color:#00F7FB"></stop> </linearGradient> <path id="global_networking" style="fill:url(#global_networking_00000143579650908016514970000001789131899042586805_);" d=" M83.4,57.9v-26c3.6-0.7,5.9-4.2,5.2-7.8c-0.7-3.6-4.2-5.9-7.8-5.2c-1.6,0.3-3,1.2-4,2.5L51.2,9.3c0.8-3.6-1.3-7.1-4.9-8 s-7.1,1.3-8,4.9c-0.2,1-0.2,2.1,0,3.1L12.9,21.4c-2.2-2.9-6.4-3.5-9.3-1.3s-3.5,6.4-1.3,9.3c1,1.3,2.4,2.2,4,2.5v26 c-3.6,0.7-5.9,4.2-5.2,7.8s4.2,5.9,7.8,5.2c1.6-0.3,3-1.2,4-2.5l25.5,12.1c-0.8,3.6,1.3,7.1,4.9,8c3.6,0.8,7.1-1.3,8-4.9 c0.2-1,0.2-2.1,0-3.1l25.5-12.1c2.2,2.9,6.4,3.5,9.3,1.3s3.5-6.4,1.3-9.3C86.4,59.1,85,58.2,83.4,57.9z M82,21.4c2.2,0,4,1.8,4,4 s-1.8,4-4,4s-4-1.8-4-4S79.8,21.4,82,21.4z M44.8,3.7c2.2,0,4,1.8,4,4s-1.8,4-4,4s-4-1.8-4-4S42.6,3.7,44.8,3.7z M3.6,25.4 c0-2.2,1.8-4,4-4s4,1.8,4,4s-1.8,4-4,4S3.6,27.6,3.6,25.4z M7.6,68.4c-2.2,0-4-1.8-4-4c0-2.2,1.8-4,4-4s4,1.8,4,4 C11.6,66.6,9.8,68.4,7.6,68.4L7.6,68.4z M44.8,86.1c-2.2,0-4-1.8-4-4s1.8-4,4-4s4,1.8,4,4S47,86.1,44.8,86.1L44.8,86.1L44.8,86.1z M76.9,60.2l-7.8-4.1c-0.7-0.3-1.5,0-1.8,0.6s-0.1,1.4,0.5,1.7l7.8,4.1c-0.4,1.1-0.4,2.3-0.1,3.4L50.1,78.1c-1-1.3-2.4-2.2-4-2.5 c-0.2-2.3,0.7-5.4-1.3-5.4s-1.1,3.2-1.3,5.4c-1.6,0.3-3,1.2-4,2.5L14.1,66c0.3-1.1,0.3-2.3-0.1-3.4l7.8-4.1c0.7-0.3,1-1.1,0.7-1.8 s-1.1-1-1.8-0.7c0,0-0.1,0-0.1,0.1l-7.8,4.1c-1-1.2-2.3-2-3.8-2.3v-26c1.5-0.3,2.8-1.1,3.8-2.3l7.8,4.1c0.6,0.4,1.4,0.1,1.8-0.5 s0.1-1.4-0.5-1.8h-0.1L14,27.2c0.4-1.1,0.4-2.3,0.1-3.4l25.5-12.1c1,1.3,2.4,2.2,4,2.5c0.2,2.3-0.7,5.4,1.3,5.5s1.1-3.2,1.3-5.5 c1.6-0.3,3-1.2,4-2.5l25.5,12.1c-0.3,1.1-0.3,2.3,0.1,3.4L68,31.3c-0.6,0.4-0.9,1.2-0.5,1.8c0.3,0.6,1.1,0.8,1.7,0.5l7.8-4.1 c1,1.2,2.3,2,3.8,2.3v26C79.2,58.2,77.9,59,76.9,60.2L76.9,60.2z M82,68.4c-2.2,0-4-1.8-4-4c0-2.2,1.8-4,4-4s4,1.8,4,4 C86,66.6,84.2,68.4,82,68.4L82,68.4L82,68.4z M44.8,22.3c-12.5,0-22.6,10.1-22.6,22.6c1.1,29.9,44.1,29.9,45.2,0 C67.4,32.4,57.3,22.3,44.8,22.3z M29.4,32.3c2.6,3.2,4.2,7.2,4.5,11.3h-8.9C25.2,39.4,26.8,35.5,29.4,32.3z M24.9,46.2h8.9 c-0.3,4.1-1.8,8.1-4.5,11.3C26.8,54.3,25.2,50.4,24.9,46.2z M43.5,64.8c-4.6-0.3-8.9-2.2-12.2-5.3c3.2-3.7,5-8.4,5.3-13.2h6.9 V64.8z M43.5,43.6h-6.9c-0.3-4.9-2.1-9.5-5.3-13.2c3.3-3.1,7.7-5,12.2-5.3V43.6z M46.1,25c4.6,0.3,8.9,2.2,12.2,5.3 c-3.2,3.7-5,8.4-5.3,13.2h-6.9V25z M46.1,64.8V46.2H53c0.3,4.9,2.1,9.5,5.3,13.2C55,62.6,50.8,64.5,46.1,64.8z M60.2,57.5 c-2.6-3.2-4.2-7.2-4.5-11.3h8.9C64.4,50.4,63,54.3,60.2,57.5z M55.8,43.6c0.3-4.1,1.8-8.1,4.5-11.3c2.6,3.2,4.2,7.2,4.5,11.3H55.8 z"></path> </g> </g> <g id="Layer_2_00000162350455125808307940000001261958154691860395_" class="st0"> <g id="Layer_1-2_00000046300093983823337550000003754520477687857587_" class="st1"> <linearGradient id="network_00000114764352043897913710000014883051270870313372_" gradientUnits="userSpaceOnUse" x1="4.1" y1="46.7872" x2="85.8752" y2="46.7872" gradientTransform="matrix(1 0 0 -1 0 91.6872)"> <stop offset="0" style="stop-color:#0099FF"></stop> <stop offset="1" style="stop-color:#00F7FB"></stop> </linearGradient> <path id="network" style="fill:url(#network_00000114764352043897913710000014883051270870313372_);" d="M30.1,26.4h7.6l-1.2,5.8 h-4.8c-0.7,0-1.2,0.6-1.2,1.3c0,0.6,0.5,1.1,1.2,1.2h26.4c0.7,0,1.2-0.6,1.2-1.3c0-0.6-0.5-1.1-1.2-1.2h-4.8l-1.2-5.8h7.6 c0.7,0,1.2-0.6,1.2-1.2l0,0V5.3c0-0.7-0.6-1.2-1.2-1.2l0,0H30.1c-0.7,0-1.2,0.6-1.2,1.2v19.9C28.8,25.9,29.4,26.4,30.1,26.4z M39,32.2l1.2-5.8h9.5l1.2,5.8H39z M31.3,6.6h27.3V24H31.3V6.6z M35,55.3H5.3c-0.7,0-1.2,0.6-1.2,1.2v19.8c0,0.7,0.6,1.2,1.2,1.2 l0,0h7.6l-1.2,5.8H6.9c-0.7,0-1.2,0.6-1.2,1.3c0,0.6,0.5,1.1,1.2,1.2h26.4c0.7,0,1.2-0.6,1.2-1.3c0-0.6-0.5-1.1-1.2-1.2h-4.8 l-1.1-5.8H35c0.7,0,1.2-0.6,1.2-1.2l0,0V56.5C36.2,55.9,35.7,55.3,35,55.3z M14.2,83.4l1.2-5.8h9.5l1.2,5.8H14.2z M33.8,75.1H6.5 V57.8h27.3V75.1z M84.6,55.3H54.8c-0.7,0-1.2,0.6-1.2,1.2v19.8c0,0.7,0.6,1.2,1.2,1.2l0,0h7.6l-1.2,5.8h-4.8 c-0.7,0-1.2,0.6-1.2,1.3c0,0.6,0.5,1.1,1.2,1.2h26.4c0.7,0,1.2-0.6,1.2-1.3c0-0.6-0.5-1.1-1.2-1.2H78l-1.2-5.8h7.6 c0.7,0,1.2-0.6,1.2-1.2l0,0V56.6C85.8,55.9,85.2,55.3,84.6,55.3L84.6,55.3L84.6,55.3z M63.8,83.4l1.2-5.8h9.5l1.2,5.8H63.8z M83.3,75.1H56.1V57.8h27.3L83.3,75.1z M5.3,43.8h38v-7c0-0.7,0.6-1.2,1.2-1.2c0.7,0,1.2,0.6,1.2,1.2v7h38.8 c0.7,0,1.2,0.6,1.2,1.3c0,0.6-0.5,1.1-1.2,1.2H70.9v7c0,0.7-0.6,1.2-1.3,1.2c-0.6,0-1.1-0.5-1.2-1.2v-7h-47v7 c0,0.7-0.6,1.2-1.2,1.2c-0.7,0-1.2-0.6-1.2-1.2l0,0v-7H5.3c-0.7-0.1-1.2-0.7-1.2-1.4C4.1,44.3,4.6,43.8,5.3,43.8z"></path> </g> </g> <g id="Layer_2_00000169520104708965113130000015172056954313307313_" class="st0"> <g id="Layer_1-2_00000037673242480615737270000001559443475312658817_" class="st1"> <linearGradient id="thumb_up_00000120531218907822083710000009031968608193242518_" gradientUnits="userSpaceOnUse" x1="0.7011" y1="44.9" x2="89.0989" y2="44.9"> <stop offset="0" style="stop-color:#0099FF"></stop> <stop offset="1" style="stop-color:#00F7FB"></stop> </linearGradient> <path id="thumb_up" style="fill:url(#thumb_up_00000120531218907822083710000009031968608193242518_);" d="M31.4,25 c-2.1,1.9-3.9,4.3-5.1,6.9H14.5c-0.7,0-1.3,0.6-1.3,1.3l0,0v29.5c0,0.7,0.6,1.3,1.3,1.3c0,0,0,0,0,0h50c4-0.1,7.2-3.3,7.2-7.4 c0-0.6-0.1-1.3-0.3-1.9c3.6-1.6,5.3-5.8,3.7-9.4c-0.1-0.3-0.3-0.7-0.5-1c2.6-2.7,2.5-7.1-0.2-9.7c0,0-0.1,0-0.1-0.1 C78,31,75.7,23,70,23.1H53.1c2.7-10.9-1.3-26.6-14.3-21.4C38.3,2,38,2.5,38.2,3.1c0.9,3.6,1.2,7.3,0.9,11 C37.3,18.2,34.6,21.9,31.4,25z M26.1,61.5H15.9V34.6h10.2V61.5z M41,3.7c5.5-1.5,9.3,2,10,9.8c0.3,3.5,0,7.1-1,10.5 c-0.2,0.7,0.2,1.5,0.9,1.7c0.1,0,0.2,0,0.4,0.1H70c2,0.2,3.5,1.9,3.5,4c0,2.8-1.6,3.9-2.1,3.9c-0.7,0-1.3,0.6-1.3,1.3 c0,0.7,0.6,1.3,1.3,1.3c1.6,0.2,2.7,1.7,2.5,3.4c0,1.4-0.7,2.8-1.9,3.6c-0.3,0.2-0.5,0.6-0.6,1c0.1,1.5,1.8,2.1,1.6,4.1 c0,2.2-1.6,4-3.7,4.4c-0.4,0.1-0.8,0.4-0.9,0.8c-0.4,1.2,0.8,2.2,0.6,3.4c0,2.5-2,4.5-4.5,4.5H28.8V33.3c0-1.5,2.2-3.9,4.6-6.4 c3.5-3.4,6.4-7.4,8.3-11.9C42.1,11.2,41.9,7.4,41,3.7z M21,56.1c0.7,0,1.3,0.6,1.3,1.3c0,0.7-0.6,1.3-1.3,1.3 c-0.7,0-1.3-0.6-1.3-1.3C19.6,56.7,20.2,56.1,21,56.1z M89.1,12.8v60.7c0,0.7-0.6,1.3-1.3,1.3c0,0,0,0,0,0H41.7L17,89 c-0.7,0.4-1.5,0.1-1.8-0.5C15,88.3,15,88,15,87.8V74.9H2c-0.7,0-1.3-0.6-1.3-1.3c0,0,0,0,0,0V12.8c0-0.7,0.6-1.3,1.3-1.3 c0,0,0,0,0,0h27.2c0.7,0,1.3,0.7,1.3,1.4c0,0.7-0.6,1.2-1.3,1.3H3.4v58h13c0.7,0,1.3,0.6,1.3,1.3v12l23-13.1 c0.2-0.1,0.4-0.2,0.7-0.2h45.1v-58H62.1c-0.7,0-1.3-0.7-1.3-1.4c0-0.7,0.6-1.2,1.3-1.3h25.7C88.5,11.5,89.1,12.1,89.1,12.8 C89.1,12.8,89.1,12.8,89.1,12.8z"></path> </g> </g> <g id="Layer_2_00000161600368843554365640000009858526308577121684_" class="st0"> <g id="Layer_1-2_00000072984012459506897200000009908469462809477518_" class="st1"> <linearGradient id="software_00000118375408594239318100000013488943195573029029_" gradientUnits="userSpaceOnUse" x1="1.7093" y1="44.9" x2="88.0907" y2="44.9"> <stop offset="0" style="stop-color:#0099FF"></stop> <stop offset="1" style="stop-color:#00F7FB"></stop> </linearGradient> <path id="software" style="fill:url(#software_00000118375408594239318100000013488943195573029029_);" d="M58,42.3l-2.5-3.5 l4.3-0.7c1.6-0.3,1.2-2.5,1.3-3.7c-0.1-1.2,0.3-3.4-1.3-3.7l-4.3-0.7l2.5-3.5c1-2-2.4-4-3.7-5.2c-1.1-1-3.2,1.4-5,2.5l-0.7-4.3 c-0.6-2.1-4.6-1.2-6.3-1.1c-1.5,0.1-1.2,3.1-1.8,5.4L37,21.3c-2-0.9-4,2.4-5.2,3.7c-1,1.1,1.4,3.2,2.5,5l-4.3,0.7 c-1.6,0.4-1.2,2.5-1.3,3.7c0.1,1.2-0.3,3.3,1.3,3.7l4.3,0.7l-2.5,3.5c-1,2,2.4,4,3.7,5.2c1.1,1,3.2-1.4,5-2.5l0.7,4.3 c0.4,1.6,2.4,1.1,3.7,1.3c1.3-0.1,3.3,0.3,3.7-1.3l0.7-4.3l3.5,2.5c2,1,4-2.4,5.2-3.7C58.3,43.4,58.3,42.8,58,42.3z M53.5,44.8 l-3.3-2.4c-0.8-0.6-1.7,0.1-2.5,0.4c-1.2,0.2-1.1,3.4-1.5,5.1c-0.8,0.1-1.7,0.1-2.5,0c-0.4-1.8-0.3-4.9-1.5-5.1 c-0.8-0.2-1.7-1-2.5-0.4l-3.3,2.4c-0.7-0.5-1.3-1.1-1.8-1.8l2.4-3.3c0.6-0.8-0.1-1.7-0.4-2.5c-0.2-1.2-3.3-1.1-5.1-1.5 c-0.1-0.8-0.1-1.7,0-2.5c1.8-0.4,4.9-0.3,5.1-1.5c0.2-0.8,1-1.7,0.4-2.5l-2.4-3.3c0.5-0.7,1.1-1.3,1.8-1.8l3.3,2.4 c0.8,0.6,1.7-0.1,2.5-0.4c1.2-0.2,1.1-3.3,1.5-5.1c0.8-0.1,1.7-0.1,2.5,0c0.4,1.8,0.3,4.9,1.5,5.1c0.8,0.2,1.7,1,2.5,0.4l3.3-2.4 c0.7,0.5,1.3,1.1,1.8,1.8l-2.4,3.3c-0.6,0.8,0.1,1.7,0.4,2.5c0.2,1.2,3.4,1.1,5.1,1.5c0.1,0.8,0.1,1.7,0,2.5 c-1.8,0.4-4.9,0.3-5.1,1.5c-0.2,0.8-1,1.7-0.4,2.5l2.4,3.3C54.8,43.7,54.2,44.3,53.5,44.8z M44.9,29.2c-2.9,0-5.2,2.3-5.2,5.2 s2.3,5.2,5.2,5.2s5.2-2.3,5.2-5.2S47.8,29.2,44.9,29.2z M44.9,37c-1.4,0-2.6-1.2-2.6-2.6s1.2-2.6,2.6-2.6s2.6,1.2,2.6,2.6 S46.3,37,44.9,37z M83.3,1.7H6.5c-2.6,0-4.8,2.2-4.8,4.8v66.3c0,2.6,2.2,4.8,4.8,4.8h21.4v7.9h-9.2c-0.7,0-1.3,0.5-1.4,1.2 s0.5,1.3,1.2,1.4c0,0,0.1,0,0.1,0h52.4c0.7,0,1.3-0.7,1.2-1.4c0-0.7-0.6-1.2-1.2-1.2h-9.2v-7.9h21.4c2.6,0,4.8-2.2,4.8-4.8V6.5 C88.1,3.9,85.9,1.7,83.3,1.7z M4.3,6.5c0-1.2,1-2.2,2.2-2.2l0,0h76.8c1.2,0,2.2,1,2.2,2.2c0,0,0,0,0,0v58H4.3V6.5z M59.3,85.5 H30.5v-7.9h28.8V85.5z M85.5,72.8c0,1.2-1,2.2-2.2,2.2c0,0,0,0,0,0H6.5c-1.2,0-2.2-1-2.2-2.2v-5.7h81.1L85.5,72.8z M14.4,40.1 c2.6,0,4.9-1.8,5.5-4.4c2.3-0.2,5.4,0.7,5.4-1.3c0-0.7-0.6-1.3-1.3-1.3l0,0h-4.1c-0.7-3-3.8-4.9-6.8-4.2c-3,0.7-4.9,3.8-4.2,6.8 C9.4,38.3,11.7,40.1,14.4,40.1z M14.4,31.4c1.7,0,3.1,1.4,3.1,3.1c0,1.7-1.4,3.1-3.1,3.1l0,0c-1.7,0-3.1-1.4-3.1-3.1 C11.3,32.7,12.7,31.4,14.4,31.4z M14.4,22.6c2.6,0,4.9-1.8,5.5-4.4h7l2.5,2.5c1.2,1.2,3.1-0.7,1.8-1.8L28.4,16 c-0.3-0.8-7.2-0.2-8.5-0.4c-0.7-3-3.8-4.9-6.8-4.2s-4.9,3.8-4.2,6.8C9.5,20.9,11.7,22.6,14.4,22.6z M14.4,13.9 c1.7,0,3.1,1.4,3.1,3.1c0,1.7-1.4,3.1-3.1,3.1c-1.7,0-3.1-1.4-3.1-3.1C11.3,15.3,12.7,13.9,14.4,13.9z M29.4,48.1l-2.5,2.5h-7 c-0.7-3-3.8-4.9-6.8-4.2s-4.9,3.8-4.2,6.8c0.7,3,3.8,4.9,6.8,4.2c2.1-0.5,3.7-2.1,4.2-4.2c1.3-0.1,8.3,0.4,8.5-0.4l2.9-2.9 C32.5,48.8,30.6,46.9,29.4,48.1z M14.4,54.9c-1.7-0.1-3-1.5-2.9-3.2c0.1-1.6,1.3-2.9,2.9-2.9c1.7,0.1,3,1.5,2.9,3.2 C17.2,53.6,16,54.9,14.4,54.9z M75.4,28.8c-2.6,0-4.9,1.8-5.5,4.4c-2.3,0.2-5.4-0.7-5.4,1.3c0,0.7,0.6,1.3,1.3,1.3h4.1 c0.7,3,3.8,4.9,6.8,4.2s4.9-3.8,4.2-6.8C80.3,30.5,78.1,28.7,75.4,28.8z M75.4,37.5c-1.7,0-3.1-1.4-3.1-3.1c0-1.7,1.4-3.1,3.1-3.1 c1.7,0,3.1,1.4,3.1,3.1S77.1,37.5,75.4,37.5L75.4,37.5L75.4,37.5z M75.4,46.2c-2.6,0-4.9,1.8-5.5,4.3h-7l-2.5-2.5 c-0.5-0.5-1.4-0.5-1.9,0.1c-0.5,0.5-0.5,1.3,0,1.8l2.9,2.9c0.2,0.8,7.3,0.2,8.5,0.4c0.7,3,3.8,4.9,6.8,4.2c3-0.7,4.9-3.8,4.2-6.8 C80.3,48,78.1,46.2,75.4,46.2L75.4,46.2z M75.4,54.9c-1.7-0.1-3-1.5-2.9-3.2c0.1-1.6,1.3-2.9,2.9-2.9c1.7,0,3.1,1.4,3.1,3.1 C78.5,53.6,77.1,54.9,75.4,54.9L75.4,54.9z M75.4,11.3c-2.6,0-4.9,1.8-5.5,4.4c-1.3,0.1-8.3-0.4-8.5,0.4l-2.9,2.9 c-1.2,1.2,0.7,3.1,1.8,1.8l2.5-2.5h7c0.7,3,3.8,4.9,6.8,4.2c3-0.7,4.9-3.8,4.2-6.8C80.3,13.1,78,11.3,75.4,11.3L75.4,11.3z M75.4,20c-1.7,0-3.1-1.4-3.1-3.1c0-1.7,1.4-3.1,3.1-3.1c1.7,0,3.1,1.4,3.1,3.1S77.1,20,75.4,20L75.4,20z"></path> </g> </g> <g id="Layer_2_00000003808634300823000140000017208013354641421958_"> <g id="Layer_1-2_00000079462296863373498200000014899143970269084038_"> <linearGradient id="science_00000143619017703170476580000013485649169669750432_" gradientUnits="userSpaceOnUse" x1="1.5689" y1="44.9" x2="88.2311" y2="44.9"> <stop offset="0" style="stop-color:#0099FF"></stop> <stop offset="1" style="stop-color:#00F7FB"></stop> </linearGradient> <path id="science" style="fill:url(#science_00000143619017703170476580000013485649169669750432_);" d="M82.2,57.4 c-0.6,0-1.2,0.1-1.8,0.3l-4.9-8.4c2.4-2.3,2.6-6,0.3-8.5c-0.1-0.1-0.2-0.2-0.3-0.3l4.9-8.4c3.1,1,6.5-0.8,7.5-3.9 c1-3.1-0.8-6.5-3.9-7.5c-1.2-0.4-2.4-0.4-3.6,0l-4.9-8.4c2.4-2.3,2.5-6,0.3-8.4s-6-2.5-8.4-0.3c-0.9,0.8-1.4,1.8-1.7,3H56 c-0.7-3.2-3.9-5.2-7.1-4.4s-5.2,3.9-4.4,7.1c0.3,1.1,0.9,2.2,1.7,3l-4.9,8.4c-3.2-0.9-6.5,0.8-7.4,4c0,0.1-0.1,0.3-0.1,0.4h-9.6 c-0.8-3.2-4-5.2-7.2-4.4c-3.2,0.8-5.2,4-4.4,7.2c0.3,1.1,0.8,2.1,1.7,2.9l-4.9,8.5c-3.1-1-6.5,0.8-7.5,3.9s0.8,6.5,3.9,7.5 c1.2,0.4,2.4,0.4,3.6,0l4.8,8.4c-2.3,2.3-2.4,6.1,0,8.4c2.3,2.3,6.1,2.4,8.4,0c0.8-0.7,1.3-1.7,1.6-2.7h9.7c0.8,3.2,4,5.1,7.2,4.3 c0.1,0,0.1,0,0.2-0.1l4.9,8.6c-2.4,2.2-2.5,6-0.3,8.4c2.2,2.4,6,2.5,8.4,0.3c0.9-0.8,1.5-1.9,1.7-3h9.7c0.7,3.2,3.9,5.2,7.1,4.5 c3.2-0.7,5.2-3.9,4.5-7.1c-0.3-1.2-0.9-2.2-1.7-3l4.9-8.5c3.2,0.9,6.5-0.9,7.4-4c0.9-3.2-0.9-6.5-4-7.4 C83.4,57.5,82.8,57.4,82.2,57.4z M74.9,44.9c0,1.9-1.5,3.4-3.4,3.4c-1.9,0-3.4-1.5-3.4-3.4c0-1.9,1.5-3.4,3.3-3.4 C73.4,41.5,74.9,43,74.9,44.9L74.9,44.9L74.9,44.9z M85.6,26.4c-0.1,1.9-1.6,3.3-3.5,3.2c-1.8-0.1-3.2-1.5-3.2-3.2 c0.1-1.9,1.6-3.3,3.5-3.2C84.1,23.2,85.5,24.6,85.6,26.4z M71.6,4.5c1.9,0.1,3.3,1.6,3.2,3.5c-0.1,1.8-1.5,3.2-3.2,3.2 c-1.9-0.1-3.3-1.6-3.2-3.5C68.4,6,69.8,4.6,71.6,4.5z M50.2,4.5C52,4.6,53.5,6.1,53.4,8c-0.1,1.8-1.5,3.2-3.2,3.2 c-1.9,0-3.4-1.5-3.4-3.4S48.3,4.5,50.2,4.5C50.2,4.5,50.2,4.5,50.2,4.5z M48.4,13.6c3.1,1,6.5-0.8,7.5-3.9c0-0.1,0.1-0.3,0.1-0.4 h9.7c0.7,3.2,3.9,5.2,7.1,4.5c0.1,0,0.3-0.1,0.4-0.1l4.9,8.5c-2.4,2.3-2.5,6-0.3,8.5c0.1,0.1,0.2,0.2,0.3,0.3l-4.9,8.4 c-3.1-1-6.5,0.8-7.5,3.9c0,0.2-0.1,0.3-0.1,0.5H56c-0.7-3.2-3.9-5.2-7.1-4.5c-0.2,0-0.3,0.1-0.5,0.1l-4.8-8.4 c2.4-2.2,2.6-6,0.4-8.4c-0.1-0.1-0.3-0.3-0.4-0.4L48.4,13.6z M46.8,44.9c0.1-1.9,1.6-3.3,3.5-3.2c1.8,0.1,3.2,1.5,3.2,3.2 c-0.1,1.9-1.6,3.3-3.5,3.2C48.3,48.1,46.9,46.7,46.8,44.9z M39.6,23c1.9,0.1,3.3,1.6,3.2,3.5c-0.1,1.8-1.5,3.2-3.2,3.2 c-1.9-0.1-3.3-1.6-3.2-3.5C36.4,24.5,37.8,23.1,39.6,23z M18.3,23c1.9,0.1,3.3,1.6,3.2,3.5c-0.1,1.8-1.5,3.2-3.2,3.2 c-1.9-0.1-3.3-1.6-3.2-3.5C15.1,24.5,16.6,23.1,18.3,23z M4.2,44.9c0.1-1.9,1.6-3.3,3.5-3.2c1.8,0.1,3.2,1.5,3.2,3.2 c-0.1,1.9-1.6,3.3-3.5,3.2C5.7,48.1,4.3,46.7,4.2,44.9z M18.3,66.6c-1.9-0.1-3.3-1.6-3.2-3.5c0.1-1.8,1.5-3.2,3.2-3.2 c1.9,0,3.4,1.5,3.4,3.4C21.7,65.1,20.2,66.6,18.3,66.6z M33.7,62.1h-9.6c-0.7-3.2-3.8-5.3-7-4.7c-0.2,0-0.5,0.1-0.7,0.2l-4.8-8.3 c2.4-2.3,2.5-6,0.3-8.5c-0.1-0.1-0.2-0.2-0.3-0.3l4.9-8.5c3.1,1,6.5-0.7,7.5-3.8c0.1-0.2,0.1-0.4,0.1-0.5h9.6 c0.7,3.2,3.9,5.2,7.1,4.5c0.1,0,0.3-0.1,0.4-0.1l4.9,8.4c-2.4,2.3-2.5,6-0.3,8.5c0.1,0.1,0.2,0.2,0.3,0.3l-4.8,8.3 c-3.1-1-6.5,0.8-7.5,3.9C33.8,61.7,33.8,61.9,33.7,62.1z M39.6,66.6c-1.9-0.1-3.3-1.6-3.2-3.5c0.1-1.8,1.5-3.2,3.2-3.2 c1.9,0.1,3.3,1.6,3.2,3.5C42.8,65.1,41.4,66.5,39.6,66.6L39.6,66.6z M50.2,85.3c-1.9-0.1-3.3-1.6-3.2-3.5c0.1-1.8,1.5-3.2,3.2-3.2 c1.9,0.1,3.3,1.6,3.2,3.5C53.4,83.8,52,85.2,50.2,85.3L50.2,85.3z M71.6,85.3c-1.9-0.1-3.3-1.6-3.2-3.5c0.1-1.8,1.5-3.2,3.2-3.2 c1.9,0.1,3.3,1.6,3.2,3.5C74.7,83.8,73.3,85.2,71.6,85.3L71.6,85.3z M78.2,67.8l-4.9,8.5c-3.1-1-6.5,0.8-7.5,3.9 c0,0.1-0.1,0.3-0.1,0.4H56c-0.7-3.2-3.9-5.2-7.1-4.5c-0.1,0-0.3,0.1-0.4,0.1l-4.9-8.5c2.5-2.2,2.7-6,0.5-8.4 c-0.1-0.1-0.3-0.3-0.4-0.4l4.8-8.3c3.1,1,6.5-0.8,7.5-3.9c0-0.1,0.1-0.3,0.1-0.5h9.7c0.7,3.2,3.9,5.2,7.1,4.5 c0.2,0,0.3-0.1,0.5-0.1l4.9,8.4c-2.4,2.3-2.5,6-0.3,8.5C78,67.6,78.1,67.7,78.2,67.8z M82.2,66.7c-1.9-0.1-3.3-1.6-3.2-3.5 c0.1-1.8,1.5-3.2,3.2-3.2c1.9,0.1,3.3,1.7,3.2,3.5C85.4,65.3,84,66.7,82.2,66.7L82.2,66.7z"></path> </g> </g> </svg> 