<?xml version="1.0" encoding="UTF-8"?> <!-- Generator: Adobe Illustrator 26.0.1, SVG Export Plug-In . SVG Version: 6.00 Build 0) --> <svg xmlns="http://www.w3.org/2000/svg" xmlns:xlink="http://www.w3.org/1999/xlink" id="Слой_1" x="0px" y="0px" viewBox="0 0 26.3 20.2" style="enable-background:new 0 0 26.3 20.2;" xml:space="preserve"> <style type="text/css"> .st0{fill:url(#SVGID_1_);} </style> <linearGradient id="SVGID_1_" gradientUnits="userSpaceOnUse" x1="-9.094947e-13" y1="10.0938" x2="26.2595" y2="10.0938"> <stop offset="0" style="stop-color:#0091FF"></stop> <stop offset="1" style="stop-color:#00FFFA"></stop> </linearGradient> <path class="st0" d="M22.2,1.7c-1.7-0.8-3.5-1.4-5.4-1.7c-0.2,0.4-0.5,1-0.7,1.4c-2-0.3-4-0.3-6,0C9.9,1,9.7,0.4,9.4,0 C7.5,0.3,5.7,0.9,4,1.7C0.6,6.8-0.4,11.9,0.1,16.8c2.3,1.7,4.5,2.7,6.6,3.4c0.5-0.7,1-1.5,1.4-2.3c-0.8-0.3-1.5-0.7-2.2-1.1 c0.2-0.1,0.4-0.3,0.5-0.4c4.3,2,9,2,13.3,0c0.2,0.1,0.4,0.3,0.5,0.4c-0.7,0.4-1.5,0.8-2.2,1.1c0.4,0.8,0.9,1.6,1.4,2.3 c2.2-0.7,4.4-1.7,6.6-3.4C26.7,11.1,25.2,6.1,22.2,1.7z M8.8,13.8c-1.3,0-2.4-1.2-2.4-2.7c0-1.5,1-2.7,2.4-2.7 c1.3,0,2.4,1.2,2.4,2.7C11.1,12.6,10.1,13.8,8.8,13.8z M17.5,13.8c-1.3,0-2.4-1.2-2.4-2.7c0-1.5,1-2.7,2.4-2.7 c1.3,0,2.4,1.2,2.4,2.7C19.9,12.6,18.8,13.8,17.5,13.8z"></path> </svg> 