<?xml version="1.0" encoding="UTF-8"?> <!-- Generator: Adobe Illustrator 26.0.1, SVG Export Plug-In . SVG Version: 6.00 Build 0) --> <svg xmlns="http://www.w3.org/2000/svg" xmlns:xlink="http://www.w3.org/1999/xlink" id="Слой_1" x="0px" y="0px" viewBox="0 0 26.3 17.9" style="enable-background:new 0 0 26.3 17.9;" xml:space="preserve"> <style type="text/css"> .st0{fill:url(#SVGID_1_);} </style> <linearGradient id="SVGID_1_" gradientUnits="userSpaceOnUse" x1="0" y1="8.9265" x2="26.2531" y2="8.9265"> <stop offset="0" style="stop-color:#0091FF"></stop> <stop offset="1" style="stop-color:#00FFFA"></stop> </linearGradient> <path class="st0" d="M25.2,1.5c-0.9-1.1-2.7-1.5-6-1.5H7.1C3.6,0,1.9,0.5,0.9,1.6C0,2.8,0,4.4,0,6.7v4.4c0,4.5,1.1,6.7,7.1,6.7h12.1 c2.9,0,4.5-0.4,5.5-1.4c1.1-1,1.5-2.6,1.5-5.4V6.7C26.3,4.3,26.2,2.6,25.2,1.5z M16.9,9.5l-5.5,2.8c-0.1,0.1-0.3,0.1-0.4,0.1 c-0.2,0-0.3,0-0.4-0.1c-0.3-0.1-0.4-0.4-0.4-0.7V6c0-0.3,0.2-0.6,0.4-0.7c0.3-0.1,0.6-0.2,0.8,0l5.5,2.8c0.3,0.1,0.5,0.4,0.5,0.7 C17.3,9.1,17.1,9.4,16.9,9.5z"></path> </svg> 