<?xml version="1.0" encoding="UTF-8"?> <!-- Generator: Adobe Illustrator 26.0.1, SVG Export Plug-In . SVG Version: 6.00 Build 0) --> <svg xmlns="http://www.w3.org/2000/svg" xmlns:xlink="http://www.w3.org/1999/xlink" id="Слой_1" x="0px" y="0px" viewBox="0 0 29.5 29.6" style="enable-background:new 0 0 29.5 29.6;" xml:space="preserve"> <style type="text/css"> .st0{fill-rule:evenodd;clip-rule:evenodd;fill:url(#SVGID_1_);} .st1{fill:url(#SVGID_00000003792422562255217710000012084056475117584274_);} </style> <g> <g> <linearGradient id="SVGID_1_" gradientUnits="userSpaceOnUse" x1="3.7433" y1="17.7923" x2="25.6109" y2="17.7923"> <stop offset="0" style="stop-color:#0091FF"></stop> <stop offset="1" style="stop-color:#00FFFA"></stop> </linearGradient> <path class="st0" d="M24.5,11.2c-0.9-0.6-1.9-1-2.9-1.3c-1-0.3-2-0.7-2.9-1.1c0,0,0,0-0.1,0c-0.2-0.6-0.6-1-1.2-1.2 c-0.8-0.3-1.6-0.2-2.4,0c-0.8-0.2-1.7-0.3-2.5-0.3c-1,0-1.8,0.3-2.7,0.7c-1,0.4-2,0.9-2.7,1.7c-0.8,0.9-1.3,2-1.5,3.1 c-0.2,1-0.2,2-0.3,3.1c-0.2,2.2-0.5,4.4-1.4,6.4c0,0.1,0.1,0.2,0.2,0.3c0.6,0.8,1.2,1.6,2,2.2c0.3,0.3,0.7,0.6,1.1,0.9 c1.1,0.7,2.2,1.3,3.4,1.7c1,0.3,2,0.6,3,0.7c0.8,0.1,1.6,0.1,2.4,0c0.5,0,1,0,1.4-0.3c-0.2-1.4,0.1-2.8,0.7-4.1 c0.7-1.6,1.7-3,2.9-4.3c1-1.1,2.1-2.1,3.1-3.1c0.6-0.6,1.1-1.2,1.4-2C25.9,13.1,25.6,12,24.5,11.2z M22.2,13.5 c0.3,0,0.6,0.2,0.6,0.5c0,0.3-0.3,0.6-0.6,0.6c-0.1,0-0.1,0-0.2,0c-0.2,0-0.3-0.2-0.4-0.4c0-0.1,0-0.1,0-0.2 C21.7,13.7,21.9,13.5,22.2,13.5z M12.9,14.1c-1.4,0-2.6-1.2-2.6-2.6c0-1.4,1.2-2.6,2.6-2.6s2.6,1.1,2.6,2.6 C15.5,12.9,14.3,14.1,12.9,14.1z M24,15.8c-1.5,1-3.1,1.6-4.9,1.9c-1,0.2-2,0.2-3-0.2c-0.5-0.2-0.9-0.5-1.1-0.8 c1,0.6,2.1,0.7,3.2,0.6c1.5-0.1,3-0.5,4.3-1c0.5-0.2,1.1-0.5,1.6-0.8c0,0,0.1-0.1,0.2,0C24.2,15.8,24.1,15.8,24,15.8z M24.4,15.6 C24.4,15.6,24.4,15.6,24.4,15.6C24.4,15.6,24.4,15.6,24.4,15.6C24.4,15.6,24.4,15.6,24.4,15.6z M24.4,15.5 C24.4,15.5,24.4,15.5,24.4,15.5L24.4,15.5C24.4,15.5,24.4,15.5,24.4,15.5z M12.9,9.6c-1,0-1.8,0.8-1.8,1.8v0c0,0.1,0,0.2,0,0.4 c0,0.1,0,0.2,0.1,0.2c0,0,0,0.1,0,0.1c0,0.1,0.1,0.1,0.1,0.2c0,0.1,0.1,0.1,0.1,0.2c0,0,0,0,0,0.1c0.3,0.4,0.8,0.7,1.4,0.7h0h0 c1,0,1.8-0.8,1.8-1.8c0-0.4-0.1-0.8-0.3-1.1C14.1,10,13.5,9.6,12.9,9.6z"></path> </g> </g> <linearGradient id="SVGID_00000019677820297780744320000007451177130978044049_" gradientUnits="userSpaceOnUse" x1="6.603909e-06" y1="14.7989" x2="29.5356" y2="14.7989"> <stop offset="0" style="stop-color:#0091FF"></stop> <stop offset="1" style="stop-color:#00FFFA"></stop> </linearGradient> <path style="fill:url(#SVGID_00000019677820297780744320000007451177130978044049_);" d="M14.7,29.6c-0.5,0-1,0-1.4-0.1 c-1.1-0.1-2.1-0.4-3.3-0.8c-1.4-0.5-2.6-1.2-3.7-1.9c-0.5-0.3-0.8-0.7-1.2-1c-0.8-0.7-1.5-1.4-2.2-2.4c-0.1-0.1-0.2-0.2-0.3-0.4 c-0.2-0.2-0.3-0.4-0.4-0.6L2,22.2c-1-1.6-1.6-3.4-1.8-5.3C0.1,16.2,0,15.6,0,15c0-0.2,0-0.4,0-0.7C0.1,11,1.2,8,3.3,5.5 c1.8-2.2,4.1-3.8,7-4.8C12,0.2,13.8-0.1,15.6,0c4,0.3,7.4,1.9,10.1,4.8c2,2.2,3.2,4.8,3.7,7.7c0.1,0.8,0.2,1.6,0.2,2.3 c0,2.3-0.5,4.5-1.6,6.6c-1.6,3.1-4,5.4-7.3,6.8c-1.1,0.4-2,0.7-2.9,0.9c-0.1,0-0.2,0.1-0.3,0.1c-0.4,0.1-0.8,0.2-1.1,0.2 c-0.1,0-0.2,0-0.3,0C15.6,29.6,15.1,29.6,14.7,29.6z M5,22c0.5,0.7,1.1,1.4,1.7,1.9c0.4,0.3,0.7,0.6,1,0.8c0.9,0.6,1.9,1.2,3.1,1.6 c1,0.3,1.9,0.6,2.8,0.7c0.6,0.1,1.4,0.1,2.1,0c0.1,0,0.3,0,0.4-0.1c0.3,0,0.5-0.1,0.6-0.1l0.5-0.2l0.1,0.1c0.7-0.1,1.4-0.4,2.2-0.7 c2.7-1.2,4.7-3.1,6-5.6l0,0c0.9-1.7,1.3-3.5,1.3-5.4c0-0.6,0-1.3-0.1-1.9c-0.4-2.4-1.4-4.5-3-6.3c-2.2-2.4-5-3.8-8.4-4 c-1.4-0.1-2.9,0.1-4.4,0.6C8.7,4,6.8,5.3,5.3,7.1c-1.7,2.1-2.6,4.5-2.7,7.4c0,0.2,0,0.3,0,0.5c0,0.5,0.1,0.9,0.1,1.6 c0.2,1.5,0.7,2.9,1.4,4.2c0,0,0,0,0.1,0.1l0.1,0.2c0,0,0,0,0,0L5,21.9L5,22z M5,22.2l0,0.1C5,22.3,5,22.3,5,22.2z"></path> </svg> 