<?xml version="1.0" encoding="UTF-8"?> <!-- Generator: Adobe Illustrator 26.0.1, SVG Export Plug-In . SVG Version: 6.00 Build 0) --> <svg xmlns="http://www.w3.org/2000/svg" xmlns:xlink="http://www.w3.org/1999/xlink" id="Слой_1" x="0px" y="0px" viewBox="0 0 29.1 29" style="enable-background:new 0 0 29.1 29;" xml:space="preserve"> <style type="text/css"> .st0{fill:url(#SVGID_1_);} </style> <g> <g> <linearGradient id="SVGID_1_" gradientUnits="userSpaceOnUse" x1="4.136379e-05" y1="14.5001" x2="29.107" y2="14.5001"> <stop offset="0" style="stop-color:#0091FF"></stop> <stop offset="1" style="stop-color:#00FFFA"></stop> </linearGradient> <path class="st0" d="M29.1,14.4c0-8-6.5-14.4-14.6-14.4C6.5,0,0,6.5,0,14.5C0,22.5,6.5,29,14.6,29c3.7,0,7.2-1.4,9.9-3.9 c0.5-0.5,0.6-1.3,0.1-1.9c-0.5-0.5-1.3-0.6-1.8-0.1c0,0,0,0,0,0c-2.2,2-5.1,3.2-8.1,3.2c-3.5,0-6.7-1.5-8.9-3.9l6.2-9.8v4.5 c0,2.2,0.9,2.9,1.6,3.1c0.7,0.2,1.8,0.1,3-1.8l3.4-5.4c0.1-0.2,0.2-0.3,0.3-0.5v2.7c0,2,0.8,3.6,2.3,4.4c1.3,0.7,2.9,0.7,4.3-0.2 C28.3,18.6,29.2,16.7,29.1,14.4L29.1,14.4L29.1,14.4L29.1,14.4z M26.5,14.6c0.1,1.3-0.4,2.3-1.1,2.8v0c-0.5,0.3-1.1,0.4-1.6,0.1 c-0.6-0.3-0.9-1.1-0.9-2.1v-3.2c0-1.5-0.6-2.6-1.6-2.9c-1.7-0.5-3.1,1.6-3.5,2.4l-3.1,4.9v-6c0-1.4-0.5-2.2-1.4-2.4 c-0.6-0.2-1.4-0.1-2.3,1.2L4,20.1c-0.9-1.7-1.4-3.6-1.4-5.6C2.6,8,8,2.6,14.6,2.6S26.5,8,26.5,14.6C26.5,14.5,26.5,14.5,26.5,14.6 C26.5,14.5,26.5,14.6,26.5,14.6z"></path> </g> </g> </svg> 